<svg width="72" height="91" viewBox="0 0 72 91" fill="none" xmlns="http://www.w3.org/2000/svg">
<path fill-rule="evenodd" clip-rule="evenodd" d="M14.8983 54.8044L35.438 90.6299L56.1711 54.468C56.3932 54.1102 56.6088 53.7343 56.8181 53.3395L57.1785 52.7109H57.1379C58.9489 49.0039 60.2448 43.7436 61 36.2794C61 22.318 49.6821 11.0001 35.7207 11.0001C21.7593 11.0001 10.4414 22.318 10.4414 36.2794C10.8059 43.7436 11.9419 49.0039 13.7214 52.7109H13.6981L13.8575 52.9889C14.1839 53.6427 14.5311 54.2466 14.8983 54.8044Z" fill="url(#paint0_linear_1708_41)" fill-opacity="0.35"/>
<g filter="url(#filter0_f_1708_41)">
<circle cx="35.9448" cy="36.0266" r="20.729" transform="rotate(-180 35.9448 36.0266)" fill="#FE8D7B"/>
</g>
<circle cx="35.944" cy="36.0266" r="19.2123" transform="rotate(-180 35.944 36.0266)" fill="white"/>
<circle cx="35.9432" cy="36.0266" r="17.6955" transform="rotate(-180 35.9432 36.0266)" fill="#FE8D7B"/>
<path d="M30.99 31.964C31.05 30.764 31.47 29.84 32.25 29.192C33.042 28.532 34.08 28.202 35.364 28.202C36.24 28.202 36.99 28.358 37.614 28.67C38.238 28.97 38.706 29.384 39.018 29.912C39.342 30.428 39.504 31.016 39.504 31.676C39.504 32.432 39.306 33.074 38.91 33.602C38.526 34.118 38.064 34.466 37.524 34.646V34.718C38.22 34.934 38.76 35.318 39.144 35.87C39.54 36.422 39.738 37.13 39.738 37.994C39.738 38.714 39.57 39.356 39.234 39.92C38.91 40.484 38.424 40.928 37.776 41.252C37.14 41.564 36.372 41.72 35.472 41.72C34.116 41.72 33.012 41.378 32.16 40.694C31.308 40.01 30.858 39.002 30.81 37.67H33.258C33.282 38.258 33.48 38.732 33.852 39.092C34.236 39.44 34.758 39.614 35.418 39.614C36.03 39.614 36.498 39.446 36.822 39.11C37.158 38.762 37.326 38.318 37.326 37.778C37.326 37.058 37.098 36.542 36.642 36.23C36.186 35.918 35.478 35.762 34.518 35.762H33.996V33.692H34.518C36.222 33.692 37.074 33.122 37.074 31.982C37.074 31.466 36.918 31.064 36.606 30.776C36.306 30.488 35.868 30.344 35.292 30.344C34.728 30.344 34.29 30.5 33.978 30.812C33.678 31.112 33.504 31.496 33.456 31.964H30.99Z" fill="black"/>
<defs>
<filter id="filter0_f_1708_41" x="0.214844" y="0.297546" width="71.459" height="71.4581" filterUnits="userSpaceOnUse" color-interpolation-filters="sRGB">
<feFlood flood-opacity="0" result="BackgroundImageFix"/>
<feBlend mode="normal" in="SourceGraphic" in2="BackgroundImageFix" result="shape"/>
<feGaussianBlur stdDeviation="7.5" result="effect1_foregroundBlur_1708_41"/>
</filter>
<linearGradient id="paint0_linear_1708_41" x1="35.7207" y1="90.6299" x2="35.7207" y2="11.0001" gradientUnits="userSpaceOnUse">
<stop stop-color="#55CCD4" stop-opacity="0.65"/>
<stop offset="1" stop-color="#55CCD4" stop-opacity="0.48"/>
</linearGradient>
</defs>
</svg>
