<svg width="72" height="91" viewBox="0 0 72 91" fill="none" xmlns="http://www.w3.org/2000/svg">
<path fill-rule="evenodd" clip-rule="evenodd" d="M57.1017 35.8255L36.562 0L15.8289 36.1619C15.6068 36.5197 15.3912 36.8955 15.1819 37.2904L14.8215 37.9189H14.8621C13.0511 41.626 11.7552 46.8863 11 54.3505C11 68.3119 22.3179 79.6298 36.2793 79.6298C50.2407 79.6298 61.5586 68.3119 61.5586 54.3505C61.1941 46.8863 60.0581 41.626 58.2786 37.9189H58.3019L58.1425 37.6409C57.8161 36.9872 57.4689 36.3833 57.1017 35.8255Z" fill="url(#paint0_linear_1708_51)" fill-opacity="0.35"/>
<g filter="url(#filter0_f_1708_51)">
<circle cx="36.0552" cy="54.6033" r="20.729" fill="#FE8D7B"/>
</g>
<circle cx="36.056" cy="54.6033" r="19.2123" fill="white"/>
<circle cx="36.0568" cy="54.6033" r="17.6955" fill="#FE8D7B"/>
<path d="M31.846 58.4439V56.4639L37.732 48.0399H40.666V56.2479H42.25V58.4439H40.666V60.9999H38.146V58.4439H31.846ZM38.308 50.7399L34.618 56.2479H38.308V50.7399Z" fill="black"/>
<defs>
<filter id="filter0_f_1708_51" x="0.326172" y="18.8743" width="71.459" height="71.4581" filterUnits="userSpaceOnUse" color-interpolation-filters="sRGB">
<feFlood flood-opacity="0" result="BackgroundImageFix"/>
<feBlend mode="normal" in="SourceGraphic" in2="BackgroundImageFix" result="shape"/>
<feGaussianBlur stdDeviation="7.5" result="effect1_foregroundBlur_1708_51"/>
</filter>
<linearGradient id="paint0_linear_1708_51" x1="36.2793" y1="0" x2="36.2793" y2="79.6298" gradientUnits="userSpaceOnUse">
<stop stop-color="#55CCD4" stop-opacity="0.65"/>
<stop offset="1" stop-color="#55CCD4" stop-opacity="0.48"/>
</linearGradient>
</defs>
</svg>
