<svg width="173" height="139" viewBox="0 0 173 139" fill="none" xmlns="http://www.w3.org/2000/svg">
<path fill-rule="evenodd" clip-rule="evenodd" d="M20.1879 124.608C84.3227 102.567 137.907 57.8354 171.353 0H172.508C138.813 58.5435 84.5834 103.771 19.6533 125.848V125.249C18.4414 126.681 17.0766 128.161 15.6147 129.623C12.5957 132.642 9.50044 135.241 6.9062 136.947C5.59321 137.808 4.45942 138.407 3.53315 138.723C2.21968 139.176 1.22261 139.072 0.574168 138.424C-0.0742697 137.775 -0.172414 136.778 0.274363 135.464C0.368113 135.194 0.483836 134.906 0.623484 134.6C0.711863 134.406 0.809519 134.206 0.91743 133.999C1.21723 133.416 1.59321 132.778 2.04536 132.091L2.12593 131.969C2.18696 131.877 2.24848 131.784 2.31245 131.693C2.51655 132.09 2.74165 132.473 2.98823 132.841C3.20942 133.171 3.44721 133.49 3.7021 133.797C3.45698 134.184 3.25532 134.532 3.08637 134.843C2.60151 135.737 2.39985 136.331 2.33442 136.663C2.59614 136.611 3.01313 136.476 3.60835 136.189C4.2646 135.873 5.13764 135.372 6.25776 134.598L6.53999 134.4L6.77583 134.233C6.39985 133.955 6.03999 133.644 5.69673 133.301C1.94184 129.546 1.94184 123.454 5.69673 119.699C9.45112 115.944 15.5439 115.944 19.2988 119.699C19.642 120.037 19.9526 120.402 20.2304 120.778C20.3027 120.677 20.373 120.577 20.4428 120.477L20.5957 120.26C22.0776 118.124 22.5517 116.887 22.6611 116.337C22.2524 116.418 21.4731 116.702 20.2304 117.443C20.145 117.492 20.0595 117.545 19.9721 117.6L19.7944 117.71C19.3969 117.376 18.979 117.073 18.5419 116.8C18.2656 116.628 17.9819 116.468 17.6909 116.32L17.8388 116.221L18.0419 116.085L18.0888 116.053C18.4086 115.84 18.7211 115.646 19.0224 115.466C19.1831 115.371 19.3408 115.28 19.4946 115.192C19.7963 115.022 20.0844 114.871 20.3588 114.738C20.7539 114.546 21.121 114.393 21.4619 114.277C22.7753 113.824 23.7724 113.928 24.4213 114.576C25.0698 115.23 25.1679 116.222 24.7153 117.541C24.5024 118.166 24.1606 118.884 23.6967 119.688C23.4726 120.077 23.2197 120.486 22.9389 120.914C22.1855 122.064 21.2539 123.312 20.1879 124.608ZM5.65864 127.416C5.1518 127.416 4.74311 127.007 4.74311 126.5C4.74311 124.418 5.55512 122.457 7.02632 120.985C7.38618 120.625 7.96382 120.625 8.32319 120.985C8.68305 121.345 8.68305 121.922 8.32319 122.282C7.19526 123.41 6.57417 124.909 6.57417 126.5C6.57954 127.007 6.16548 127.416 5.65864 127.416ZM16.9008 130.903C14.9936 132.811 13.0537 134.554 11.2167 136.031C14.0834 136.413 17.0971 135.502 19.2988 133.301C21.5058 131.094 22.4155 128.086 22.0288 125.219C20.5522 127.056 18.8081 128.996 16.9008 130.903Z" fill="#FE8D7B"/>
</svg>
