<svg width="434" height="61" viewBox="0 0 434 61" fill="none" xmlns="http://www.w3.org/2000/svg">
<mask id="path-1-inside-1_1684_812" fill="white">
<path fill-rule="evenodd" clip-rule="evenodd" d="M434 4C434 1.79086 432.209 0 430 0H18C15.7909 0 14 1.79086 14 3.99999V36.4666C14 36.6274 13.801 36.7027 13.6946 36.5821V36.5821C13.6199 36.4974 13.4857 36.5049 13.4209 36.5974L0.738388 54.6885C-1.36173 57.6843 1.32945 61.6942 4.89758 60.8858L30.002 55.1981C30.0465 55.188 30.0639 55.134 30.0338 55.0998V55.0998C29.9995 55.061 30.0271 55 30.0788 55H430C432.209 55 434 53.2091 434 51V4Z"/>
</mask>
<path d="M30.002 55.1981L29.781 54.2228L30.002 55.1981ZM13.4209 36.5974L12.602 36.0233L13.4209 36.5974ZM18 1H430V-1H18V1ZM15 36.4666V3.99999H13V36.4666H15ZM1.55722 55.2626L14.2397 37.1714L12.602 36.0233L-0.0804467 54.1145L1.55722 55.2626ZM29.781 54.2228L4.67661 59.9105L5.11854 61.8611L30.223 56.1733L29.781 54.2228ZM430 54H30.0788V56H430V54ZM433 4V51H435V4H433ZM430 56C432.761 56 435 53.7614 435 51H433C433 52.6569 431.657 54 430 54V56ZM30.7836 54.4382C31.3192 55.0451 30.8881 56 30.0788 56V54C29.166 54 28.6799 55.0769 29.2839 55.7614L30.7836 54.4382ZM30.223 56.1733C31.0081 55.9955 31.3162 55.0418 30.7836 54.4382L29.2839 55.7614C28.8116 55.2261 29.0849 54.3805 29.781 54.2228L30.223 56.1733ZM-0.0804467 54.1145C-2.70559 57.8592 0.658384 62.8716 5.11854 61.8611L4.67661 59.9105C2.00052 60.5168 -0.0178634 57.5094 1.55722 55.2626L-0.0804467 54.1145ZM14.4445 35.9205C13.9416 35.3506 13.0382 35.4011 12.602 36.0233L14.2397 37.1714C13.9331 37.6087 13.2982 37.6442 12.9448 37.2437L14.4445 35.9205ZM13 36.4666C13 35.7061 13.9413 35.3502 14.4445 35.9205L12.9448 37.2437C13.6607 38.0551 15 37.5487 15 36.4666H13ZM430 1C431.657 1 433 2.34315 433 4H435C435 1.23858 432.761 -1 430 -1V1ZM18 -1C15.2386 -1 13 1.23857 13 3.99999H15C15 2.34314 16.3431 1 18 1V-1Z" fill="#C4C4C4" mask="url(#path-1-inside-1_1684_812)"/>
</svg>
